<svg xmlns="http://www.w3.org/2000/svg" width="12.647" height="16" viewBox="0 0 12.647 16"><defs><style>.a{fill:red;}</style></defs><g transform="translate(-81.133)"><g transform="translate(81.133)"><path class="a" d="M92.689,1.884H90.553V.5a.5.5,0,0,0-.5-.5.075.075,0,0,0-.054.018A.069.069,0,0,0,89.958,0H84.865a.489.489,0,0,0-.5.5V1.884H82.224a1.077,1.077,0,0,0-1.091,1.091V4.76h.947V14.918A1.062,1.062,0,0,0,83.161,16h8.59a1.07,1.07,0,0,0,1.091-1.082V4.76h.937V2.975A1.078,1.078,0,0,0,92.689,1.884ZM85.361.992h4.192v.892H85.361Zm6.481,13.927c0,.063-.027.09-.09.09h-8.59c-.063,0-.09-.027-.09-.09V4.759h8.771Zm.937-11.15H82.134V2.975c0-.063.027-.1.09-.1H92.689c.063,0,.09.036.09.1Z" transform="translate(-81.133)"/><rect class="a" width="1.001" height="8.203" transform="translate(8.14 5.922)"/><rect class="a" width="1.001" height="8.203" transform="translate(5.832 5.922)"/><rect class="a" width="1.001" height="8.203" transform="translate(3.525 5.922)"/></g></g></svg>