<svg xmlns="http://www.w3.org/2000/svg" width="18" height="16" viewBox="0 0 18 16"><path d="M6.738,282.337l2.936.9a.373.373,0,0,1-.019.06.573.573,0,0,1-.5.377,15.362,15.362,0,0,1-2.581.057.452.452,0,0,0-.056.9,15.657,15.657,0,0,0,2.779-.068,1.543,1.543,0,0,0,1.305-1.7.453.453,0,0,0-.318-.392l-3.288-1a5.243,5.243,0,0,0-3.479.456.094.094,0,0,0-.026.015l-3.273,2a.453.453,0,0,0,.232.841.478.478,0,0,0,.232-.064l3.258-1.98A4.283,4.283,0,0,1,6.738,282.337Z" transform="translate(0 -271.783)"/><path d="M67.511,265.787a1.7,1.7,0,0,0-2.282-.69c-1.152.517-3.587,1.7-3.613,1.709a.452.452,0,0,0-.209.6.446.446,0,0,0,.6.211c.026-.011,2.446-1.188,3.587-1.7a.839.839,0,0,1,.834,0l.019.011-6.1,4.507a2.025,2.025,0,0,1-1.511.37l-5.443-.875a.459.459,0,0,0-.359.1l-1.377,1.158a.453.453,0,0,0,.288.8.446.446,0,0,0,.288-.106l1.219-1.026,5.244.845a2.917,2.917,0,0,0,2.185-.532l6.509-4.805A.458.458,0,0,0,67.511,265.787Z" transform="translate(-49.567 -255.992)"/><path d="M190.059,139.775A2.6,2.6,0,0,0,191.91,139a2.654,2.654,0,0,0,0-3.73,2.6,2.6,0,0,0-3.7,0,2.654,2.654,0,0,0,0,3.73A2.6,2.6,0,0,0,190.059,139.775Zm-1.216-3.862a1.706,1.706,0,0,1,2.431,0,1.747,1.747,0,0,1,0,2.452,1.706,1.706,0,0,1-2.431,0A1.747,1.747,0,0,1,188.843,135.912Z" transform="translate(-180.429 -130.5)"/><path d="M286.983,32.617a2.02,2.02,0,0,0,1.444-.6,2.072,2.072,0,0,0,0-2.912,2.029,2.029,0,0,0-2.888,0,2.072,2.072,0,0,0,0,2.912A2.011,2.011,0,0,0,286.983,32.617Zm-.808-2.874a1.14,1.14,0,0,1,1.624,0,1.166,1.166,0,0,1,0,1.633,1.14,1.14,0,0,1-1.624,0A1.166,1.166,0,0,1,286.174,29.743Z" transform="translate(-274.282 -28.498)"/></svg>