<svg xmlns="http://www.w3.org/2000/svg" width="18.575" height="16" viewBox="0 0 18.575 16"><defs><style>.a{fill:#fff;}</style></defs><g transform="translate(0 -33.985)"><path class="a" d="M0,41.987a.9.9,0,0,0,.644.815l6.8,2.057.25,4.69a.465.465,0,0,0,.314.409.426.426,0,0,0,.152.027.46.46,0,0,0,.349-.155l2.406-2.663,3.41,2.36a.9.9,0,0,0,.515.163.915.915,0,0,0,.89-.727l2.83-14.423a.463.463,0,0,0-.629-.519L.547,41.1A.914.914,0,0,0,0,41.987Zm8.562,6.4-.155-2.959,1.743,1.2Zm6.266.36-6.206-4.3,8.7-8.418ZM16.372,35.66l-8.6,8.324L.971,41.93Z" transform="translate(0)"/></g></svg>